# xmcd
#
# Track frame offsets:
#	150
#	12695
#	26505
#	42407
#	53542
#	69880
#	84105
#	96385
#	109685
#	124442
#	141530
#	154867
#	168252
#	180985
#	195352
#	211147
#	227940
#	242387
#	253625
#	269235
#
# Disc length: 3774 seconds
#
# Revision: 0
# Processed by: cddbd v1.5PL3 Copyright (c) Steve Scherf et al.
# Submitted via: audiograbber 1.82.02
#
DISCID=120ebc14
DTITLE=Various Artist - Feber: Lennart Persson - Stax Soul Disc 2
DYEAR=1900
DGENRE=
TTITLE0=Calvin Scott - Shame On The Family Name
TTITLE1=Eddie Giles - Losing Boy
TTITLE2=Eddie Floyd - My Mind Was Messed Around At The Time
TTITLE3=Jean Knight - You Think You're Hot Stuff
TTITLE4=The Emotions - My Honey And Me
TTITLE5=Frederick Knight - Trouble
TTITLE6=Hot Sauce - What Do You See In Her?
TTITLE7=Jimmy Lewis - Stop Half Loving These Women
TTITLE8=The Soul Children - Love Is A Hurtin' Thing
TTITLE9=William Bell - I've Got To Go On Without You
TTITLE10=The Sweet Inspirations - Slipped And Tripped
TTITLE11=The Dramatics - Beware Of The Man (With The Candy In His Hand)
TTITLE12=Little Sonny - My Woman Is Good To Me
TTITLE13=Mel and Tim - The Same Folks
TTITLE14=The Temprees - You Make The Sunshine
TTITLE15=Inez Foxx - Circuit's Overloaded
TTITLE16=Pop Staples - Whicha Way Did It Go?
TTITLE17=Sandra Wright - Wounded Woman
TTITLE18=Shirley Brown - Long As You Love Me
TTITLE19=R.B. Hudmon - How Can I Be A Witness
EXTD=
EXTT0=
EXTT1=
EXTT2=
EXTT3=
EXTT4=
EXTT5=
EXTT6=
EXTT7=
EXTT8=
EXTT9=
EXTT10=
EXTT11=
EXTT12=
EXTT13=
EXTT14=
EXTT15=
EXTT16=
EXTT17=
EXTT18=
EXTT19=
PLAYORDER=
